<svg xmlns="http://www.w3.org/2000/svg" height="48" viewBox="0 96 960 960" width="48"><path fill="#ea1a68" d="M674 1044q-12.5 0-19.25-6.75T648 1017q0-11.5 6.75-18.75T674 991h119v-62H674q-12.5 0-19.25-6.75T648 902q0-11.5 6.75-18.75T674 876h119v-62H674q-12.5 0-19.25-6.75T648 787q0-11.5 6.75-18.75T674 761h119v-62H674q-12.5 0-19.25-6.75T648 672q0-11.5 6.75-18.75T674 646h119v-62H674q-12.5 0-19.25-6.75T648 557q0-11.5 6.75-18.75T674 531h119v-62H674q-12.5 0-19.25-6.75T648 442q0-11.5 6.75-18.75T674 416h153q25.75 0 45.875 20.125T893 482v495q0 27.75-20.125 47.38Q852.75 1044 827 1044H674ZM320.823 690Q388 690 435.5 624.629t47.5-156.5Q483 378 435.677 312q-47.323-66-114.5-66Q253 246 206 311.871t-47 156Q159 559 205.823 624.5q46.823 65.5 115 65.5Zm.177 354q-48 0-75.5-33.5T222 930l19-165q-77-31-125.5-111T67 468q0-130 74.5-222T321 154q105 0 179 92t74 222q0 106-48.5 186T401 765l18 166q5 46-23 79.5t-75 33.5Z"/></svg>