<svg xmlns="http://www.w3.org/2000/svg" height="48" viewBox="0 -960 960 960" width="48"><path fill="black" d="M156-36q-36.775 0-63.888-27.406Q65-90.813 65-128v-190q0-25.462 14.625-48.505Q94.25-389.549 119-402l111-48v-74q0-28.493 13.364-49.48Q256.727-594.467 280-607l155-78v-86h-35q-18.375 0-31.688-13.358Q355-797.716 355-816.158t13.312-32.142Q381.625-862 400-862h35v-34q0-18.8 13.358-32.4 13.358-13.6 31.8-13.6t32.142 13.6Q526-914.8 526-896v34h34q18.8 0 32.4 13.65 13.6 13.651 13.6 32.525 0 18.45-13.6 31.637Q578.8-771 560-771h-34v86l155 78q22 12.366 36 33.437 14 21.07 14 49.563v74l110 48q24.75 12.451 39.875 35.495Q896-343.462 896-318v190q0 37.188-27.613 64.594Q840.775-36 805-36H526v-170q0-19.55-13.21-32.775Q499.58-252 480.053-252q-19.528 0-32.29 13.225Q435-225.55 435-206v170H156Zm0-92h188v-80q0-55.82 39.762-96.91Q423.525-346 480.471-346q56.946 0 97.237 41.09Q618-263.82 618-208v80h187v-193l-165-73.35V-528l-160-82-159 82v133.65L156-321v193Zm323.824-274Q502-402 518.5-418.324q16.5-16.323 16.5-38.5Q535-478 518.676-495q-16.323-17-38.5-17Q458-512 441.5-495.176q-16.5 16.823-16.5 38Q425-435 441.324-418.5q16.323 16.5 38.5 16.5Zm.176 32Z"/></svg>