<svg xmlns="http://www.w3.org/2000/svg" height="48" viewBox="0 96 960 960" width="48"><path fill="#b73df9" d="M185 976.062q0-138.137 61.5-225.099Q308 664 411 576q-103-88-164.5-174.963Q185 314.075 185 175.938V156q0-19.05 13.182-32.525Q211.365 110 229.982 110q18.618 0 32.318 13.475T276 156v20q0 4.1.75 7.55t.285 7.45h406.937q-.972-4 .028-7.45t1-7.55v-20q0-19.05 13.182-32.525Q711.365 110 729.982 110q18.618 0 32.318 13.475T776 156v19.938q0 138.137-62 225.099Q652 488 550 576q102 88 164 174.963 62 86.962 62 225.099V996q0 18.62-13.475 31.81Q749.05 1041 730 1041q-18.625 0-31.812-13.19Q685 1014.62 685 996v-20q0-4.1-.75-7.55t-.285-7.45H277q.5 4-.25 7.45T276 976v20q0 18.62-13.475 31.81Q249.05 1041 230 1041q-18.625 0-31.812-13.19Q185 1014.62 185 996v-19.938ZM317 339h327q9.688-14.667 17.844-33.333Q670 287 675 267H286q4.4 20.05 12.438 38.412Q306.475 323.775 317 339Zm163 176 58-48q29-24 52-51H370q23 27 51.5 51t58.5 48ZM370 736h220q-23-27-52-51t-58-50q-29 26-58 50t-52 51Zm-84 148h389q-4.778-19.185-13.264-37.668Q653.25 827.85 644 812H317q-10.688 15.667-18.844 34.333Q290 865 286 884Z"/></svg>