<svg xmlns="http://www.w3.org/2000/svg" height="56" viewBox="0 112 960 960" width="56"><path fill="#ea1a68" d="M432 914H221q-15.3 0-25.65-10.35Q185 893.3 185 878V591H91q-12.167 0-17.083-11.5Q69 568 79 560l377-341q10.651-9 24.326-9Q494 210 504 219l168 149v-82q0-15.3 10.35-25.65Q692.7 250 708 250h31q15.3 0 25.65 10.35Q775 270.7 775 286v177l107.033 96.756Q891 568 886.174 579.5q-4.826 11.5-16.739 11.5H775v287q0 15.3-10.35 25.65Q754.3 914 739 914H528V662h-96v252Zm-174-73h101V625q0-15.3 10.35-25.65Q379.7 589 395 589h170q15.3 0 25.65 10.35Q601 609.7 601 625v216h101V496.829L480 295 258 496.829V841Zm133 452.685 391 488Zm4 101h170-170Z"/></svg>