<svg xmlns="http://www.w3.org/2000/svg" height="48" viewBox="0 96 960 960" width="48"><path fill="#4285F4" d="M479.794 993q-6.191 0-12.493.5Q461 994 457 992q-140.043-45.858-229.521-174.929Q138 688 138 534V345q0-28.754 16.24-52.857Q170.481 268.041 198 258l251-94q15-5 31-5t32 5l251 94q26.538 9.581 43.269 33.825Q823 316.07 823 345v189q0 154-89.821 283.102-89.82 129.101-229.4 174.972-5.191 1.926-11.492 1.426-6.302-.5-12.493-.5Zm.075-88Q580 866 647.961 777.953 715.922 689.906 728 576H480V252l-251 93.078v189.265q0 11.895 1 21.048 1 9.154 2.058 20.609h247.811v329Z"/></svg>