<svg xmlns="http://www.w3.org/2000/svg" height="48" viewBox="0 96 960 960" width="48"><path fill="black" d="M486.559 758Q527 758 551 740.031t24-47.628q0-31.295-22.5-52.349Q530 619 473 595q-69-26-102-57.448-33-31.447-33-83.339 0-43.942 28-76.578Q394 345 448 337v-14q0-13.2 8.857-22.1 8.857-8.9 23-8.9h1Q495 292 504 300.9t9 22.1v13.176q32 5.824 56.5 19.741Q594 369.833 611 398q7 10.389 2 22.694Q608 433 595.593 437 585 441 573 438.5T553 426q-15-17-33.872-25.5t-41.093-8.5Q443 392 423 408.304q-20 16.303-20 41.647 0 30.951 24.5 50T508.212 543q71.055 28 101.421 63.259Q640 641.518 640 692.028 640 720 630.5 741t-26.286 36q-16.785 15-39.862 24.208Q541.275 810.417 511 814v16q0 13.2-8.857 22.1-8.857 8.9-23 8.9t-23.643-9.4q-9.5-9.4-9.5-22.6v-17q-35-8-63.614-30.218Q353.771 759.564 332 721q-5-11 .296-21.403 5.297-10.403 17.667-15.597Q360 681 371 685.5q11 4.5 18 15.5 14 28 39.935 42.5Q454.87 758 486.559 758ZM479 1035q-110 0-213-62.5T100 830v89q0 16.325-11.564 27.662Q76.87 958 60.21 958q-16.235 0-27.723-11.338Q21 935.325 21 919V734q0-19.45 12.987-32.725Q46.975 688 66 688h185q16.75 0 28.375 12.064Q291 712.129 291 727.789q0 16.236-11.625 27.724Q267.75 767 251 767h-97q50 71 141 129.5T478.6 955Q622 955 730 859.5T857 620q1-16 13.053-27 12.052-11 29.122-11 14.825 0 27.325 9.375T937 616q-8.741 90.267-47.87 167.134Q850 860 787.871 915.683q-62.129 55.683-141.5 87.497Q567 1035 479 1035Zm1-838q-143 0-251 95.5T104 532q-2.497 15.429-14.48 26.714Q77.537 570 60.56 570q-15.487 0-27.523-11.833Q21 546.333 24 530q6-87 46-162t100-130q60-55 140.653-88 80.653-33 169.847-33Q591 117 695 179.5T860 322v-89q0-18.45 10.982-29.225 10.983-10.775 29-10.775Q917 193 928.5 203.775T940 233v185q0 19.025-13.275 32.013Q913.45 463 894 463H709q-16.325 0-27.662-11.772-11.338-11.772-11.338-27Q670 408 681.338 396q11.337-12 27.662-12h98q-54-74-146-130.5T480 197Z"/></svg>