<svg xmlns="http://www.w3.org/2000/svg" height="48" viewBox="0 96 960 960" width="48"><path fill="black" d="M234.684 822q-16.916 0-28.8-11.7T194 781V519q0-13.949 12.384-25.974Q218.768 481 234.684 481t27.616 11.987Q274 504.975 274 520v262q0 16.513-12.2 28.256Q249.6 822 234.684 822Zm249.72 0q-16.036 0-27.72-11.7Q445 798.6 445 781V519q0-13.949 11.763-25.974Q468.526 481 484.263 481T512 492.987q12 11.988 12 27.013v262q0 16.513-11.781 28.256Q500.439 822 484.404 822ZM105 950q-18 0-31.5-13.884t-13.5-31.8Q60 885.4 73.2 872.2T106 859h750q16.949 0 30.974 13.7Q901 886.4 901 904.316q0 18.916-13.688 32.3Q873.625 950 855 950H105Zm620.684-128q-15.916 0-27.8-11.7T686 781V519q0-13.949 12.384-25.974Q710.768 481 725.684 481q16.916 0 28.616 11.987Q766 504.975 766 520v262q0 16.513-12.2 28.256Q741.6 822 725.684 822ZM525 139l333 190q17.741 10.594 30.37 27.734Q901 373.875 901 393q0 22.447-17.173 36.723Q866.653 444 845 444H115q-22.2 0-38.6-14.277Q60 415.447 60 393q0-19.5 12.5-35.75T105 329l330-190q19.6-10 44.8-10 25.2 0 45.2 10ZM253 352h454-454Zm0 0h454L480 220 253 352Z"/></svg>