<svg xmlns="http://www.w3.org/2000/svg" height="48" viewBox="0 96 960 960" width="48"><path fill="#eaeaea" d="M150 997q-36.775 0-63.888-27.112Q59 942.775 59 906V542q0-27.709 14.792-50.801Q88.583 468.108 115 457l203-87q22-9 43-.089T382 398v26l137-56q23-8 43 5.533 20 13.534 20 37.467v63h320v432q0 36.775-27.613 63.888Q846.775 997 811 997H150Zm661-431.169H496V478l-200 80v-79l-146 63v364h661V565.831ZM479.947 814q16.028 0 28.04-11.475Q520 791.05 520 775v-78q0-16.475-11.752-28.237Q496.495 657 480.035 657 464 657 452.5 668.763 441 680.525 441 697v78q0 16.05 11.46 27.525Q463.92 814 479.947 814Zm-171.28 0q15.951 0 28.142-11.475Q349 791.05 349 775v-78q0-16.475-11.954-28.237Q325.092 657 308.333 657q-15.958 0-27.645 11.763Q269 680.525 269 697v78q0 16.05 11.858 27.525Q292.716 814 308.667 814Zm342.982 0q15.951 0 28.151-11.475T692 775v-78q0-16.475-12.15-28.237Q667.699 657 651.316 657q-15.959 0-27.637 11.763Q612 680.525 612 697v78q0 16.05 11.662 27.525Q635.323 814 651.649 814ZM902 474H699l35-274q.833-17.571 13.525-28.786Q760.216 160 779 160h41q16.865 0 29.932 11Q863 182 865 199l37 275Zm-91 432H150h661Z"/></svg>