<svg xmlns="http://www.w3.org/2000/svg" height="48" viewBox="0 96 960 960" width="48"><path fill="#ea1a68" d="M185 968q-37.812 0-64.406-26.912Q94 914.175 94 877V544q-30-31-36-69.057T63 402l42.2-134.877Q117 232 141.933 212q24.933-20 61.187-20h549.627q35.835 0 63.044 21Q843 234 855 267l43 135q11 34 2.5 71T867 540v337q0 37.175-27.206 64.088Q812.588 968 775 968H185Zm385.52-470q23.916 0 42.198-16T628 442l-24-158h-86v157q0 23.615 14.818 40.308Q547.637 498 570.52 498Zm-186.987 0q23.745 0 41.606-16.192Q443 465.615 443 441V284h-85l-24 158q-4 22 10 39t39.533 17Zm-181.299 0Q222 498 238 483t18-36l26-163h-86l-44 140q-9 29.212 6 51.606Q173 498 202.234 498Zm555.298 0Q786 498 802 476q16-22 7-52l-44-140h-84l24 163q1 21 16.4 36 15.4 15 36.132 15ZM185 877h590V589q2.875 1-4.062.5-6.938-.5-13.076-.5-19.862 0-43.362-8.5Q691 572 666.053 553 650 570 625.129 579.5t-51.856 9.5Q545 589 522.5 581.5 500 574 481 559q-18.726 13.947-40.863 21.974Q418 589 391.218 589q-30.692 0-54.093-9.026Q313.723 570.947 295 553q-27 20-52.5 28t-40.5 8q-7 0-11.438.5-4.437.5-5.562-.5v288Zm590 0H185 775Z"/></svg>