<svg xmlns="http://www.w3.org/2000/svg" height="48" viewBox="0 96 960 960" width="48"><path fill="black" d="M480 997q-79.751 0-148.544-25.817-68.793-25.816-119.732-69.292-50.94-43.475-78.832-100.227Q105 744.912 105 684v-62q0-14.75 12.781-21.375t25.386 2.664l112.647 86.286q9.075 6.512 10.13 17.468Q267 718 261 725l-44 43q31 51 93.5 90.5T435 901V553h-85q-18.625 0-31.812-13.182Q305 526.635 305 508.018q0-18.618 13.188-32.318Q331.375 462 350 462h85v-61q-47-19-69-51.813-22-32.814-22-73.854 0-58.666 39.645-99Q423.289 136 480.353 136q58.064 0 97.855 40.583Q618 217.167 618 275q0 41.17-23.156 74.112Q571.688 382.054 526 401v61h84q19.05 0 32.525 13.475Q656 488.95 656 508q0 18.625-13.475 31.812Q629.05 553 610 553h-84v348q61-3 123.5-42.5T743 768l-43-43q-7-7.067-5.944-18.041Q695.111 695.986 704 690l114-87q11.438-9 24.719-2.375T856 622v62q0 60.912-28.392 117.664t-79.332 100.227q-50.939 43.476-119.732 69.292Q559.751 997 480 997Zm-.395-677q20.87 0 33.632-12.368Q526 295.264 526 275.395q0-20.87-12.88-34.132Q500.239 228 479.895 228q-20.37 0-32.632 13.38Q435 254.761 435 275.105q0 20.37 12.368 32.632Q459.736 320 479.605 320Z"/></svg>